<?xml version="1.0" standalone="no"?>
<!DOCTYPE svg PUBLIC "-//W3C//DTD SVG 20010904//EN"
 "http://www.w3.org/TR/2001/REC-SVG-20010904/DTD/svg10.dtd">
<svg version="1.0" xmlns="http://www.w3.org/2000/svg"
 width="824.000000pt" height="824.000000pt" viewBox="0 0 824.000000 824.000000"
 preserveAspectRatio="xMidYMid meet">
<metadata>
Created by potrace 1.11, written by Peter Selinger 2001-2013
</metadata>
<g transform="translate(0.000000,824.000000) scale(0.100000,-0.100000)"
fill="#000000" stroke="none">
<path d="M1708 7035 c-2 -2 -28 -6 -58 -8 -54 -5 -72 -8 -160 -29 -132 -30
-278 -95 -365 -161 -49 -37 -161 -152 -178 -182 -49 -89 -71 -134 -92 -193
-23 -64 -30 -91 -41 -157 -3 -16 -9 -44 -14 -62 -4 -17 -9 -357 -10 -755 -1
-397 -3 -741 -5 -763 -6 -77 -15 -123 -30 -151 -8 -16 -15 -33 -15 -37 0 -21
-64 -94 -102 -119 -76 -47 -126 -55 -330 -54 -104 1 -188 -2 -188 -6 0 -4 -9
-4 -20 0 -11 4 -38 6 -60 4 l-40 -4 0 -389 0 -389 28 0 c517 -3 555 -8 646
-91 51 -46 88 -119 101 -194 3 -16 7 -41 10 -54 2 -13 5 -285 5 -605 1 -319 5
-601 10 -626 4 -25 10 -58 13 -75 18 -111 55 -208 134 -350 25 -45 151 -164
218 -207 80 -51 136 -78 215 -103 30 -10 62 -20 70 -23 21 -7 42 -12 65 -16
39 -7 100 -19 120 -24 11 -2 201 -7 423 -9 l402 -5 -2 393 -3 393 -290 2
c-159 1 -299 5 -310 7 -11 3 -23 6 -27 6 -20 2 -78 67 -89 99 -10 28 -13 187
-15 642 -1 333 -4 624 -7 647 -25 183 -105 332 -232 429 -85 65 -228 124 -338
140 -26 3 -46 8 -43 11 2 2 30 11 63 19 32 8 65 16 73 18 8 2 45 15 82 29 227
86 364 269 394 527 4 30 8 393 9 805 1 597 5 756 15 780 7 17 14 33 14 38 1 9
52 44 86 59 16 7 132 12 318 13 160 1 294 4 297 7 4 4 7 323 5 711 l0 68 -374
-2 c-206 -1 -376 -3 -378 -4z"/>
<path d="M5780 6651 c0 -306 3 -391 13 -392 6 0 140 -2 297 -3 306 -3 331 -7
376 -58 49 -55 48 -43 50 -843 1 -682 4 -808 19 -870 18 -78 26 -101 52 -157
41 -86 100 -158 175 -211 59 -42 139 -85 170 -91 7 -2 21 -6 30 -10 9 -4 22
-8 30 -10 7 -1 18 -5 24 -8 5 -4 34 -10 62 -14 29 -4 55 -12 59 -18 3 -6 3 -8
-1 -4 -7 6 -146 -29 -216 -54 -100 -37 -215 -121 -277 -203 -27 -36 -86 -141
-82 -147 1 -2 -5 -28 -14 -58 -27 -99 -30 -168 -32 -760 -1 -322 -5 -601 -9
-620 -15 -65 -62 -111 -131 -128 -11 -3 -149 -5 -307 -6 l-288 -1 0 -393 0
-394 403 6 c221 3 416 7 432 10 63 10 181 37 225 52 25 9 50 17 55 18 19 4
170 80 180 91 6 6 28 23 50 38 42 27 147 138 171 179 7 13 21 39 30 58 9 19
20 37 24 40 15 10 63 168 80 265 16 87 18 174 20 665 1 519 3 608 13 665 20
120 86 214 177 254 71 31 91 33 350 36 l245 2 3 390 c2 384 2 391 -18 396 -11
3 -20 2 -20 -1 0 -8 -207 -5 -227 2 -7 3 -13 2 -13 -2 0 -8 -13 -8 -166 2
-188 12 -291 99 -329 279 -10 48 -14 228 -15 777 -1 393 -3 733 -5 755 -5 49
-12 101 -20 135 -3 14 -8 41 -12 60 -4 19 -8 37 -8 40 -8 27 -78 194 -84 200
-4 3 -19 25 -36 50 -36 55 -144 163 -196 195 -102 65 -226 118 -329 141 -19 4
-37 8 -40 9 -13 4 -79 16 -115 21 -22 4 -217 9 -432 11 l-393 5 0 -391z"/>
</g>
</svg>
